<svg xmlns="http://www.w3.org/2000/svg" viewBox="0 0 512 405.25"><defs><style>.cls-1{fill:#fff;}</style></defs><title>ANILLOSVG</title><g id="Capa_2" data-name="Capa 2"><g id="Layer_1" data-name="Layer 1"><path class="cls-1" d="M400.68,89.2l8.18-36.83a10,10,0,0,0-9.8-12.22h-75.3A10,10,0,0,0,314,52.37l8.19,36.83a150.86,150.86,0,0,0-28,10.64,174.43,174.43,0,0,0-118.47-46C78.81,53.88,0,132.69,0,229.56S78.81,405.25,175.69,405.25A175.32,175.32,0,0,0,287,365.49a150.2,150.2,0,0,0,74.43,19.68c83,0,150.59-67.55,150.59-150.59C512,165.13,464.73,106.51,400.68,89.2Zm-14.14-29-5.56,25A150.53,150.53,0,0,0,361.41,84a152,152,0,0,0-19.57,1.28l-5.56-25ZM279.26,345.69a155.28,155.28,0,0,1-103.57,39.48c-85.81,0-155.61-69.81-155.61-155.61S89.88,74,175.69,74A154.4,154.4,0,0,1,276,110.57l.07,0a151.83,151.83,0,0,0-16.19,12.87v0A135,135,0,0,0,175.69,94C101,94,40.16,154.83,40.16,229.56S101,365.09,175.69,365.09a135.49,135.49,0,0,0,122-194.49,90,90,0,0,1,16.1-12.78,155.54,155.54,0,0,1-34.54,187.87ZM245.89,138a150.59,150.59,0,0,0-5,186.84,115.45,115.45,0,1,1,5-186.84Zm25.17,96.61a90.21,90.21,0,0,1,12.57-45.91,115.2,115.2,0,0,1-2.37,87.59A89.31,89.31,0,0,1,271.06,234.58Zm60.86-85.41a89.36,89.36,0,0,1,29.49-4.94,90.36,90.36,0,1,1-34,174,175.89,175.89,0,0,0,4.55-169.09Zm29.49,215.92a130.3,130.3,0,0,1-58.86-14l-.05,0a177.22,177.22,0,0,0,13.55-15.91v0a110.43,110.43,0,1,0,45.37-211.1,109.1,109.1,0,0,0-48.11,11,110.35,110.35,0,0,0-43.45,161.06,116.63,116.63,0,0,1-13.48,15.79,130.52,130.52,0,1,1,105,53Z"/><path class="cls-1" d="M353.13,20.08h16.56a10,10,0,1,0,0-20.08H353.13a10,10,0,0,0,0,20.08Z"/></g></g></svg>