<svg xmlns="http://www.w3.org/2000/svg" viewBox="0 0 236.57 295.8"><title>TRAJE_1</title><g id="Capa_2" data-name="Capa 2"><g id="Layer_1" data-name="Layer 1"><path d="M53,295.8V240c-11-3.51-15.5-11.61-16.42-22.73H34q-14.14,0-28.29,0c-4.27,0-5.66-1.34-5.66-5.64Q0,133.35.07,55.09c0-11.59,3.85-21.87,12.1-30.33A38.41,38.41,0,0,1,25,16.14c4.76-2,9.6-2.39,14.59-2.37,7.14,0,14.28-.15,21.41.08,2.71.09,4.51-1.12,6.3-2.67,3.86-3.34,7.62-6.82,11.56-10.07A6,6,0,0,1,82.42.05C106.29,0,130.16,0,154,.1c1.61,0,3.36,1.19,4.78,2.2,2.31,1.67,4.4,3.64,6.58,5.49,1.4,1.2,2.78,2.43,4.17,3.64a8.5,8.5,0,0,0,6.14,2.42c8-.2,16,0,24-.11A31.61,31.61,0,0,1,217,18.68c10,6.19,16.12,15.41,18.46,27a59.5,59.5,0,0,1,1.1,11.62q.1,76.62,0,153.22c0,.6,0,1.19,0,1.79-.2,3.65-1.58,5-5.28,5q-14.15,0-28.29,0h-2.47c-1.05,3.67-1.91,7.17-3.07,10.57-1.44,4.24-4.59,7.23-8.15,9.67a3.34,3.34,0,0,0-1.7,3.23q.06,27.54,0,55.07h-8.15V240.21H136c-4.14,0-5.46-1.34-5.51-5.52,0-2.89,0-5.78,0-8.67v-8.57H106.05c0,5.78,0,11.39,0,17,0,4.51-1.29,5.77-5.77,5.77H61.19V295.8ZM97.74,231c.08-.49.11-.57.11-.66q0-51.24,0-102.49a4.37,4.37,0,0,0-1-2.46c-3.74-4.77-7.59-9.47-11.36-14.23C79,103,72.67,94.72,66.07,86.63c-3.12-3.84-5.16-7.59-5-12.94.39-16,.14-31.95.14-47.93V23c-8,0-15.65.17-23.28-.05-5.48-.16-10.3,1.72-14.89,4.21a22,22,0,0,0-6.21,5.12c-6,7.12-8.7,15.44-8.68,24.82q.12,74.06,0,148.13v2.72H36.86V69.51h8v3.16q0,71,0,142c0,1.28,0,2.56.09,3.82.57,6.93,5.55,12.8,13.47,12.61,12.32-.3,24.64-.08,37-.08ZM228.41,208v-3.2q0-73.29,0-146.6c0-7.53-1.18-14.63-5.25-21.14-5.27-8.43-12.73-13.42-22.64-14-7.88-.44-15.8-.1-23.7-.09a8.24,8.24,0,0,0-1.46.27c0,17.22,0,34.3,0,51.38,0,3.57-.5,6.55-3,9.53-6.43,7.57-12.31,15.59-18.48,23.37-4.19,5.29-8.46,10.52-12.75,15.73a11.4,11.4,0,0,0-2.54,7.85c.11,32.3.07,64.59.07,96.89v3c14.06,0,27.73.06,41.4-.05a10,10,0,0,0,7.22-3.1c3.56-3.56,4.42-7.81,4.42-12.55q0-71.4,0-142.78v-3h8.22V208ZM85.83,27.66a6.31,6.31,0,0,0-.15.93q0,19.38,0,38.76a6,6,0,0,0,.33,2C91.47,84.18,97,99,102.38,113.89c1.63,4.57,3.83,9,3.75,14.13-.22,14.87-.08,29.74-.08,44.61v2.69h24.47v-2.86q0-22.83,0-45.64a13.32,13.32,0,0,1,.57-4.51c5.48-15,11-30,16.64-45A43.56,43.56,0,0,0,151,60c-.35-9.85-.09-19.72-.09-29.57V27.72h-8.16v6c0,7.14.15,14.28-.12,21.41a6.47,6.47,0,0,1-2.52,4.49c-.91.62-3-.12-4.38-.67-1.2-.47-2.14-1.56-3.23-2.33-3.43-2.4-6.93-4.7-10.28-7.21-3.1-2.32-4.45-2.44-7.59-.16-1.76,1.27-3.56,2.51-5.36,3.73-2.64,1.8-5.47,3.37-7.9,5.41-1.58,1.34-3.25,2.5-4.88,1.31a6.88,6.88,0,0,1-2.56-4.5c-.34-4.39-.12-8.82-.12-13.24V27.66Zm65-18.3h-65v9c3.85,0,7.5-.05,11.14,0a6.13,6.13,0,0,1,3.1.78c5.58,3.71,11,7.59,16.64,11.28a3.29,3.29,0,0,0,2.9.09c3.18-1.87,6.23-4,9.31-6,2.31-1.53,4.54-3.18,6.91-4.6a9.36,9.36,0,0,1,4-1.5c3.6-.2,7.23-.07,10.95-.07ZM87.8,100l.48-.32c-2.64-7.22-5.18-14.47-8-21.63a37.77,37.77,0,0,1-2.9-14.54c.23-15.54.08-31.09.08-46.64V14a67.79,67.79,0,0,0-6,4.94,6.66,6.66,0,0,0-2.06,3.95c-.14,17.42-.12,34.84,0,52.25a6.28,6.28,0,0,0,1.32,3.35c2.69,3.65,5.5,7.23,8.33,10.78S84.88,96.4,87.8,100Zm71.27-86V17.1c0,16.74,0,33.48,0,50.21a15.51,15.51,0,0,1-.69,5c-1.7,5-3.63,9.84-5.45,14.76-1.56,4.22-3.07,8.45-4.61,12.68l.63.41c.4-.54.78-1.09,1.2-1.62,4.72-5.94,9.37-11.93,14.2-17.77a13.22,13.22,0,0,0,3-9.22c-.2-15.8-.14-31.61,0-47.41a6.27,6.27,0,0,0-2.17-5.27C163.28,17.3,161.36,15.81,159.07,14ZM130.34,208V185.34H106.2V208ZM113.6,39.28l-11.5-7.93v16Zm20.88-8-11.48,8,11.48,8Z"/><path d="M114.21,295.8c0-4.76-.06-9.52,0-14.27a5.18,5.18,0,0,0-1.59-4c-3-3.09-5.79-6.34-8.58-9.6a2,2,0,0,1-.23-1.9c1.53-1.9,3.23-3.65,5.1-5.7l9.34,10.49,9.34-10.48c1.8,2,3.56,3.75,5.11,5.7.29.37,0,1.59-.39,2.08-2.91,3.38-6,6.63-8.87,10a4.94,4.94,0,0,0-1,2.9c-.11,4.92,0,9.85,0,14.78Z"/><path d="M85.54,175.62V185H57.31v-9.38Z"/><path d="M151.05,175.55h28.24V185H151.05Z"/><path d="M122.33,69.46c-.06,2.6-1.9,4.55-4.2,4.45a4.31,4.31,0,0,1-3.88-4.77c.14-2.52,1.85-4.35,4.07-4.33A4.28,4.28,0,0,1,122.33,69.46Z"/><path d="M118.21,166.22a4.15,4.15,0,0,1-4-4.4c0-2.68,2-4.83,4.24-4.7s3.89,2.35,3.83,4.85A4.12,4.12,0,0,1,118.21,166.22Z"/><path d="M122.33,138.61a4.08,4.08,0,1,1-8.08.07,4.26,4.26,0,0,1,3.88-4.51C120.43,134.07,122.26,136,122.33,138.61Z"/><path d="M122.33,92.39a4,4,0,1,1-8.07.24c-.06-2.34,1.92-4.8,3.91-4.87S122.27,90.06,122.33,92.39Z"/><path d="M118.31,111.22a4.16,4.16,0,0,1,4,4.37c0,2.37-2.08,4.74-4.06,4.73s-4-2.41-4-4.77A4.16,4.16,0,0,1,118.31,111.22Z"/></g></g></svg>