<svg xmlns="http://www.w3.org/2000/svg" viewBox="0 0 949.16 1518.58"><defs><style>.cls-1{fill:none;stroke:#000;stroke-linecap:round;stroke-linejoin:round;stroke-width:50px;}</style></defs><title>VESTIDO1_1</title><g id="Capa_2" data-name="Capa 2"><g id="Capa_1-2" data-name="Capa 1"><g id="STROKES"><path class="cls-1" d="M331.7,595.94c6.9-110,40.4-112.5,63.2-203.8,26.2-104.7-44.3-177.2-36.2-243.7s-36.3-113.6-36.3-113.6,17.7-26.3,73,7.1a152.3,152.3,0,0,1,48.2,47c10.6,16,29.3,36.6,56.7,38.2,0,0,132.7-25.6,103.6,72S564.4,330,589.4,404.84c23.5,70.7,84.2,319.3,90.8,471,.4,8.9.6,17.4.6,25.6,0,147.5,10.4,434.2,64.4,509"/><path class="cls-1" d="M288.7,783c-4.6-79.5,15.2-140.9,43-187.1,51.8-86.4,131.5-120,131.5-120"/><path class="cls-1" d="M813.4,1381.84c178.3,32.1,87.8,90.9,87.8,90.9-116.3,59.3-355.9-26.8-355.9-26.8-94.1,54.8-212.2,8.6-212.2,8.6-189.9,46.2-378.1-24-282.3-61.6S230.4,1160.24,252.7,931a531.63,531.63,0,0,1,36-148c52.6-129.9,140.2-194.2,140.2-194.2"/><path class="cls-1" d="M848.1,1428.84c-12.6-11.1-24.2-27.2-34.7-47-48.2-90.2-75.8-255.7-88.4-356.8-7.2-57.5-26.3-109.8-44.8-149.2"/><path class="cls-1" d="M333.1,1454.54s86.8-207.2,77.7-413.3"/><path class="cls-1" d="M545.3,1445.94s-26.9-434.6,25.8-626.9"/></g></g></g></svg>